<mxfile host="app.diagrams.net" modified="2022-05-11T13:21:09.914Z" agent="5.0 (Windows NT 10.0; Win64; x64) AppleWebKit/537.36 (KHTML, like Gecko) Chrome/100.0.4896.75 Safari/537.36" etag="A_z_V2GFT9sZ_yyHlkSr" version="18.0.2" type="github">
  <diagram id="U3Ts_N_V1dPbvJZaUKl7" name="第 1 页">
    <mxGraphModel dx="1422" dy="1930" grid="1" gridSize="10" guides="1" tooltips="1" connect="1" arrows="1" fold="1" page="1" pageScale="1" pageWidth="827" pageHeight="1169" math="0" shadow="0">
      <root>
        <mxCell id="0" />
        <mxCell id="1" parent="0" />
        <mxCell id="SpAj27-SIUObOZi9cKdY-1" value="" style="rounded=0;whiteSpace=wrap;html=1;fillColor=#f5f5f5;fontColor=#333333;strokeColor=#666666;fontFamily=宋体;fontSize=16;" vertex="1" parent="1">
          <mxGeometry x="110" y="190" width="280" height="350" as="geometry" />
        </mxCell>
        <mxCell id="SpAj27-SIUObOZi9cKdY-3" value="浏览器（教师）" style="text;html=1;strokeColor=none;fillColor=none;align=center;verticalAlign=middle;whiteSpace=wrap;rounded=0;fontFamily=宋体;fontSize=16;" vertex="1" parent="1">
          <mxGeometry x="100" y="160" width="137.5" height="30" as="geometry" />
        </mxCell>
        <mxCell id="SpAj27-SIUObOZi9cKdY-10" value="" style="group;fontSize=16;fontFamily=宋体;" vertex="1" connectable="0" parent="1">
          <mxGeometry x="140" y="210" width="220" height="180" as="geometry" />
        </mxCell>
        <mxCell id="SpAj27-SIUObOZi9cKdY-4" value="课程名称" style="rounded=0;whiteSpace=wrap;html=1;fontFamily=宋体;fontSize=16;" vertex="1" parent="SpAj27-SIUObOZi9cKdY-10">
          <mxGeometry width="123.75" height="36" as="geometry" />
        </mxCell>
        <mxCell id="SpAj27-SIUObOZi9cKdY-5" value="课程类型" style="rounded=0;whiteSpace=wrap;html=1;fontFamily=宋体;fontSize=16;" vertex="1" parent="SpAj27-SIUObOZi9cKdY-10">
          <mxGeometry y="48" width="123.75" height="36" as="geometry" />
        </mxCell>
        <mxCell id="SpAj27-SIUObOZi9cKdY-6" value="课程内容" style="rounded=0;whiteSpace=wrap;html=1;fontFamily=宋体;fontSize=16;" vertex="1" parent="SpAj27-SIUObOZi9cKdY-10">
          <mxGeometry y="96" width="123.75" height="36" as="geometry" />
        </mxCell>
        <mxCell id="SpAj27-SIUObOZi9cKdY-7" value="" style="shape=curlyBracket;whiteSpace=wrap;html=1;rounded=1;flipH=1;fontFamily=宋体;fontSize=16;" vertex="1" parent="SpAj27-SIUObOZi9cKdY-10">
          <mxGeometry x="137.5" width="27.5" height="180" as="geometry" />
        </mxCell>
        <mxCell id="SpAj27-SIUObOZi9cKdY-8" value="课程介绍" style="rounded=0;whiteSpace=wrap;html=1;fontFamily=宋体;fontSize=16;" vertex="1" parent="SpAj27-SIUObOZi9cKdY-10">
          <mxGeometry y="144" width="123.75" height="36" as="geometry" />
        </mxCell>
        <mxCell id="SpAj27-SIUObOZi9cKdY-9" value="新&lt;br style=&quot;font-size: 16px;&quot;&gt;增&lt;br style=&quot;font-size: 16px;&quot;&gt;课&lt;br style=&quot;font-size: 16px;&quot;&gt;程" style="rounded=0;whiteSpace=wrap;html=1;fontFamily=宋体;fontSize=16;" vertex="1" parent="SpAj27-SIUObOZi9cKdY-10">
          <mxGeometry x="178.75" y="36" width="41.25" height="108" as="geometry" />
        </mxCell>
        <mxCell id="SpAj27-SIUObOZi9cKdY-11" value="修改课程&lt;br style=&quot;font-size: 16px;&quot;&gt;&lt;font style=&quot;font-size: 11px;&quot;&gt;（课程名称、课程类型、课程内容...）&lt;/font&gt;" style="rounded=0;whiteSpace=wrap;html=1;fontFamily=宋体;fontSize=16;" vertex="1" parent="1">
          <mxGeometry x="140" y="410" width="220" height="60" as="geometry" />
        </mxCell>
        <mxCell id="SpAj27-SIUObOZi9cKdY-12" value="删除课程" style="rounded=0;whiteSpace=wrap;html=1;fontFamily=宋体;fontSize=16;" vertex="1" parent="1">
          <mxGeometry x="140" y="490" width="220" height="30" as="geometry" />
        </mxCell>
        <mxCell id="SpAj27-SIUObOZi9cKdY-13" value="" style="rounded=0;whiteSpace=wrap;html=1;fontFamily=宋体;fontSize=16;fillColor=#f5f5f5;fontColor=#333333;strokeColor=#666666;" vertex="1" parent="1">
          <mxGeometry x="440" y="250" width="510" height="290" as="geometry" />
        </mxCell>
        <mxCell id="SpAj27-SIUObOZi9cKdY-14" value="服务器" style="text;html=1;strokeColor=none;fillColor=none;align=center;verticalAlign=middle;whiteSpace=wrap;rounded=0;fontFamily=宋体;fontSize=16;" vertex="1" parent="1">
          <mxGeometry x="510" y="220" width="90" height="30" as="geometry" />
        </mxCell>
        <mxCell id="SpAj27-SIUObOZi9cKdY-15" value="请&lt;br&gt;求&lt;br&gt;分&lt;br&gt;发&lt;br&gt;器" style="rounded=0;whiteSpace=wrap;html=1;fontFamily=宋体;fontSize=16;" vertex="1" parent="1">
          <mxGeometry x="480" y="260" width="40" height="270" as="geometry" />
        </mxCell>
        <mxCell id="SpAj27-SIUObOZi9cKdY-16" value="HTTP" style="endArrow=classic;startArrow=classic;html=1;rounded=0;fontFamily=Times New Roman;fontSize=16;exitX=1;exitY=0.5;exitDx=0;exitDy=0;" edge="1" parent="1" source="SpAj27-SIUObOZi9cKdY-9">
          <mxGeometry width="50" height="50" relative="1" as="geometry">
            <mxPoint x="390" y="530" as="sourcePoint" />
            <mxPoint x="480" y="300" as="targetPoint" />
          </mxGeometry>
        </mxCell>
        <mxCell id="SpAj27-SIUObOZi9cKdY-17" value="HTTP" style="endArrow=classic;startArrow=classic;html=1;rounded=0;fontFamily=Times New Roman;fontSize=16;exitX=1;exitY=0.5;exitDx=0;exitDy=0;" edge="1" parent="1">
          <mxGeometry width="50" height="50" relative="1" as="geometry">
            <mxPoint x="360" y="439" as="sourcePoint" />
            <mxPoint x="480" y="439" as="targetPoint" />
          </mxGeometry>
        </mxCell>
        <mxCell id="SpAj27-SIUObOZi9cKdY-18" value="HTTP" style="endArrow=classic;startArrow=classic;html=1;rounded=0;fontFamily=Times New Roman;fontSize=16;exitX=1;exitY=0.5;exitDx=0;exitDy=0;" edge="1" parent="1">
          <mxGeometry width="50" height="50" relative="1" as="geometry">
            <mxPoint x="360" y="505" as="sourcePoint" />
            <mxPoint x="480" y="505" as="targetPoint" />
          </mxGeometry>
        </mxCell>
        <mxCell id="SpAj27-SIUObOZi9cKdY-29" style="edgeStyle=orthogonalEdgeStyle;rounded=0;orthogonalLoop=1;jettySize=auto;html=1;entryX=0;entryY=0.409;entryDx=0;entryDy=0;entryPerimeter=0;fontFamily=宋体;fontSize=16;" edge="1" parent="1" source="SpAj27-SIUObOZi9cKdY-19" target="SpAj27-SIUObOZi9cKdY-20">
          <mxGeometry relative="1" as="geometry" />
        </mxCell>
        <mxCell id="SpAj27-SIUObOZi9cKdY-19" value="&lt;font&gt;&lt;font face=&quot;Times New Roman&quot;&gt;Controller&lt;/font&gt;&lt;br&gt;处理请求&lt;br&gt;&lt;/font&gt;" style="rounded=0;whiteSpace=wrap;html=1;fontFamily=宋体;fontSize=16;" vertex="1" parent="1">
          <mxGeometry x="560" y="310" width="100" height="50" as="geometry" />
        </mxCell>
        <mxCell id="SpAj27-SIUObOZi9cKdY-20" value="数&lt;br&gt;据&lt;br&gt;库" style="shape=cylinder3;whiteSpace=wrap;html=1;boundedLbl=1;backgroundOutline=1;size=15;fontFamily=宋体;fontSize=16;" vertex="1" parent="1">
          <mxGeometry x="710" y="290" width="60" height="110" as="geometry" />
        </mxCell>
        <mxCell id="SpAj27-SIUObOZi9cKdY-27" style="edgeStyle=orthogonalEdgeStyle;rounded=0;orthogonalLoop=1;jettySize=auto;html=1;fontFamily=宋体;fontSize=16;" edge="1" parent="1" source="SpAj27-SIUObOZi9cKdY-21" target="SpAj27-SIUObOZi9cKdY-22">
          <mxGeometry relative="1" as="geometry" />
        </mxCell>
        <mxCell id="SpAj27-SIUObOZi9cKdY-28" style="edgeStyle=orthogonalEdgeStyle;rounded=0;orthogonalLoop=1;jettySize=auto;html=1;fontFamily=宋体;fontSize=16;" edge="1" parent="1" source="SpAj27-SIUObOZi9cKdY-21" target="SpAj27-SIUObOZi9cKdY-20">
          <mxGeometry relative="1" as="geometry" />
        </mxCell>
        <mxCell id="SpAj27-SIUObOZi9cKdY-21" value="&lt;font&gt;&lt;font face=&quot;Times New Roman&quot;&gt;Controller&lt;/font&gt;&lt;br&gt;处理请求&lt;br&gt;&lt;/font&gt;" style="rounded=0;whiteSpace=wrap;html=1;fontFamily=宋体;fontSize=16;" vertex="1" parent="1">
          <mxGeometry x="580" y="455" width="100" height="50" as="geometry" />
        </mxCell>
        <mxCell id="SpAj27-SIUObOZi9cKdY-22" value="磁盘" style="strokeWidth=1;html=1;shape=mxgraph.flowchart.stored_data;whiteSpace=wrap;fontFamily=宋体;fontSize=16;spacing=2;" vertex="1" parent="1">
          <mxGeometry x="820" y="450" width="100" height="60" as="geometry" />
        </mxCell>
        <mxCell id="SpAj27-SIUObOZi9cKdY-30" style="edgeStyle=orthogonalEdgeStyle;rounded=0;orthogonalLoop=1;jettySize=auto;html=1;entryX=1;entryY=0;entryDx=0;entryDy=75;entryPerimeter=0;fontFamily=宋体;fontSize=16;" edge="1" parent="1" source="SpAj27-SIUObOZi9cKdY-23" target="SpAj27-SIUObOZi9cKdY-20">
          <mxGeometry relative="1" as="geometry" />
        </mxCell>
        <mxCell id="SpAj27-SIUObOZi9cKdY-31" style="edgeStyle=orthogonalEdgeStyle;rounded=0;orthogonalLoop=1;jettySize=auto;html=1;fontFamily=宋体;fontSize=16;" edge="1" parent="1" source="SpAj27-SIUObOZi9cKdY-23" target="SpAj27-SIUObOZi9cKdY-22">
          <mxGeometry relative="1" as="geometry" />
        </mxCell>
        <mxCell id="SpAj27-SIUObOZi9cKdY-23" value="&lt;font&gt;&lt;font face=&quot;Times New Roman&quot;&gt;Controller&lt;/font&gt;&lt;br&gt;处理请求&lt;br&gt;&lt;/font&gt;" style="rounded=0;whiteSpace=wrap;html=1;fontFamily=宋体;fontSize=16;" vertex="1" parent="1">
          <mxGeometry x="820" y="340" width="100" height="50" as="geometry" />
        </mxCell>
        <mxCell id="SpAj27-SIUObOZi9cKdY-24" value="请求分发器" style="rounded=0;whiteSpace=wrap;html=1;fontFamily=宋体;fontSize=16;strokeWidth=1;" vertex="1" parent="1">
          <mxGeometry x="810" y="260" width="120" height="30" as="geometry" />
        </mxCell>
        <mxCell id="SpAj27-SIUObOZi9cKdY-25" value="" style="endArrow=classic;startArrow=classic;html=1;rounded=0;fontFamily=宋体;fontSize=16;entryX=0;entryY=0.5;entryDx=0;entryDy=0;" edge="1" parent="1" target="SpAj27-SIUObOZi9cKdY-19">
          <mxGeometry width="50" height="50" relative="1" as="geometry">
            <mxPoint x="520" y="335" as="sourcePoint" />
            <mxPoint x="440" y="450" as="targetPoint" />
          </mxGeometry>
        </mxCell>
        <mxCell id="SpAj27-SIUObOZi9cKdY-26" value="" style="endArrow=classic;startArrow=classic;html=1;rounded=0;fontFamily=宋体;fontSize=16;" edge="1" parent="1" target="SpAj27-SIUObOZi9cKdY-21">
          <mxGeometry width="50" height="50" relative="1" as="geometry">
            <mxPoint x="520" y="480" as="sourcePoint" />
            <mxPoint x="560" y="479.65999999999997" as="targetPoint" />
          </mxGeometry>
        </mxCell>
        <mxCell id="SpAj27-SIUObOZi9cKdY-32" value="" style="endArrow=classic;startArrow=classic;html=1;rounded=0;fontFamily=宋体;fontSize=16;entryX=0.5;entryY=1;entryDx=0;entryDy=0;exitX=0.5;exitY=0;exitDx=0;exitDy=0;" edge="1" parent="1" source="SpAj27-SIUObOZi9cKdY-23" target="SpAj27-SIUObOZi9cKdY-24">
          <mxGeometry width="50" height="50" relative="1" as="geometry">
            <mxPoint x="430" y="460" as="sourcePoint" />
            <mxPoint x="480" y="410" as="targetPoint" />
          </mxGeometry>
        </mxCell>
        <mxCell id="SpAj27-SIUObOZi9cKdY-33" value="HTTP" style="endArrow=classic;startArrow=classic;html=1;rounded=0;fontFamily=Times New Roman;fontSize=16;entryX=0.5;entryY=0;entryDx=0;entryDy=0;" edge="1" parent="1" source="SpAj27-SIUObOZi9cKdY-34" target="SpAj27-SIUObOZi9cKdY-24">
          <mxGeometry width="50" height="50" relative="1" as="geometry">
            <mxPoint x="790" y="210" as="sourcePoint" />
            <mxPoint x="910" y="209" as="targetPoint" />
          </mxGeometry>
        </mxCell>
        <mxCell id="SpAj27-SIUObOZi9cKdY-34" value="" style="rounded=0;whiteSpace=wrap;html=1;fontFamily=宋体;fontSize=16;strokeWidth=1;fillColor=#f5f5f5;fontColor=#333333;strokeColor=#666666;" vertex="1" parent="1">
          <mxGeometry x="775" y="10" width="190" height="190" as="geometry" />
        </mxCell>
        <mxCell id="SpAj27-SIUObOZi9cKdY-35" value="选择（观看）课程" style="rounded=0;whiteSpace=wrap;html=1;fontFamily=宋体;fontSize=16;strokeWidth=1;" vertex="1" parent="1">
          <mxGeometry x="787.5" y="30" width="165" height="40" as="geometry" />
        </mxCell>
        <mxCell id="SpAj27-SIUObOZi9cKdY-37" value="收藏课程" style="rounded=0;whiteSpace=wrap;html=1;fontFamily=宋体;fontSize=16;strokeWidth=1;" vertex="1" parent="1">
          <mxGeometry x="787.5" y="140" width="165" height="40" as="geometry" />
        </mxCell>
        <mxCell id="SpAj27-SIUObOZi9cKdY-38" value="课程留言" style="rounded=0;whiteSpace=wrap;html=1;fontFamily=宋体;fontSize=16;strokeWidth=1;" vertex="1" parent="1">
          <mxGeometry x="787.5" y="85" width="165" height="40" as="geometry" />
        </mxCell>
        <mxCell id="SpAj27-SIUObOZi9cKdY-39" value="浏览器（学生）" style="text;html=1;strokeColor=none;fillColor=none;align=center;verticalAlign=middle;whiteSpace=wrap;rounded=0;fontFamily=宋体;fontSize=16;" vertex="1" parent="1">
          <mxGeometry x="775" y="-20" width="120" height="30" as="geometry" />
        </mxCell>
      </root>
    </mxGraphModel>
  </diagram>
</mxfile>
